<svg width="26" height="26" viewBox="0 0 26 26" fill="none" xmlns="http://www.w3.org/2000/svg">
<path d="M9.8617 13.799H11.6549V17.9727C11.6549 18.5911 12.4175 18.8796 12.8297 18.4159L17.2198 13.428C17.6011 12.9952 17.292 12.315 16.7149 12.315H14.9217V8.14129C14.9217 7.52296 14.1591 7.23441 13.7469 7.69815L9.35673 12.686C8.97542 13.1188 9.28459 13.799 9.8617 13.799Z" stroke="#0177FB" stroke-width="1.54582" stroke-miterlimit="10" stroke-linecap="round" stroke-linejoin="round"/>
<path d="M13.2522 23.3625C18.9437 23.3625 23.5577 18.7486 23.5577 13.057C23.5577 7.36545 18.9437 2.75153 13.2522 2.75153C7.56058 2.75153 2.94666 7.36545 2.94666 13.057C2.94666 18.7486 7.56058 23.3625 13.2522 23.3625Z" stroke="#0177FB" stroke-width="1.54582" stroke-miterlimit="10" stroke-linecap="round" stroke-linejoin="round"/>
</svg>
