<svg width="54" height="53" viewBox="0 0 54 53" fill="none" xmlns="http://www.w3.org/2000/svg">
<g clip-path="url(#clip0_2_1563)">
<path d="M26.6934 49.0569C39.1724 49.0569 49.2887 38.9406 49.2887 26.4615C49.2887 13.9825 39.1724 3.86618 26.6934 3.86618C14.2143 3.86618 4.09802 13.9825 4.09802 26.4615C4.09802 38.9406 14.2143 49.0569 26.6934 49.0569Z" stroke="#6ED097" stroke-opacity="0.44" stroke-width="7.7363" stroke-linecap="round" stroke-linejoin="round"/>
<path d="M26.6934 3.86618C39.1713 3.86618 49.2887 13.9836 49.2887 26.4615C49.2887 38.9394 39.1713 49.0569 26.6934 49.0569C14.2155 49.0569 4.09802 38.9394 4.09802 26.4615C4.09802 22.4406 5.14802 18.6679 6.98756 15.3958" stroke="#6ED097" stroke-width="7.7363" stroke-linecap="round" stroke-linejoin="round"/>
<path d="M21.8439 24.9689C21.8439 25.6828 21.6565 26.312 21.2817 26.8563L18.3233 31.314H16.5564L18.6982 28.1682H18.5375C17.5648 28.1682 16.7661 27.8737 16.1414 27.2847C15.5256 26.6868 15.2177 25.9148 15.2177 24.9689C15.2177 24.0229 15.5256 23.2554 16.1414 22.6664C16.7661 22.0685 17.5648 21.7696 18.5375 21.7696C19.5192 21.7696 20.3134 22.0685 20.9203 22.6664C21.5361 23.2554 21.8439 24.0229 21.8439 24.9689ZM16.7572 24.9689C16.7572 25.4776 16.9222 25.897 17.2524 26.2272C17.5916 26.5485 18.0199 26.7091 18.5375 26.7091C19.0551 26.7091 19.479 26.5529 19.8092 26.2406C20.1394 25.9193 20.3045 25.4954 20.3045 24.9689C20.3045 24.4424 20.1394 24.0229 19.8092 23.7106C19.479 23.3893 19.0551 23.2287 18.5375 23.2287C18.0199 23.2287 17.5916 23.3893 17.2524 23.7106C16.9222 24.0229 16.7572 24.4424 16.7572 24.9689ZM27.7389 23.2554L25.8381 25.7721C26.5342 25.9327 27.0875 26.254 27.498 26.7359C27.9174 27.2089 28.1271 27.7889 28.1271 28.4761C28.1271 29.4131 27.8103 30.1494 27.1767 30.6848C26.552 31.2203 25.7756 31.488 24.8475 31.488C24.1157 31.488 23.4687 31.3229 22.9065 30.9927C22.3443 30.6536 21.9427 30.1717 21.7017 29.547L23.0136 28.784C23.2902 29.5871 23.9015 29.9887 24.8475 29.9887C25.3829 29.9887 25.8068 29.8549 26.1192 29.5871C26.4315 29.3105 26.5877 28.9401 26.5877 28.4761C26.5877 28.012 26.4315 27.6461 26.1192 27.3784C25.8068 27.1107 25.3829 26.9768 24.8475 26.9768H24.4994L23.8837 26.0532L25.905 23.3893H21.9828V21.9436H27.7389V23.2554ZM32.6084 22.3853C33.0278 22.8048 33.2376 23.3134 33.2376 23.9114C33.2376 24.5093 33.0278 25.018 32.6084 25.4374C32.1979 25.8479 31.6803 26.0532 31.0556 26.0532C30.422 26.0532 29.8999 25.8479 29.4894 25.4374C29.07 25.018 28.8602 24.5093 28.8602 23.9114C28.8602 23.3224 29.07 22.8182 29.4894 22.3987C29.9088 21.9793 30.4309 21.7696 31.0556 21.7696C31.6803 21.7696 32.1979 21.9748 32.6084 22.3853ZM31.0422 24.8752C31.3278 24.8752 31.5598 24.7859 31.7383 24.6075C31.9168 24.42 32.006 24.188 32.006 23.9114C32.006 23.6347 31.9168 23.4027 31.7383 23.2153C31.5598 23.0279 31.3278 22.9342 31.0422 22.9342C30.7656 22.9342 30.538 23.0279 30.3595 23.2153C30.181 23.4027 30.0918 23.6347 30.0918 23.9114C30.0918 24.1791 30.181 24.4067 30.3595 24.5941C30.5469 24.7815 30.7745 24.8752 31.0422 24.8752ZM30.3729 30.3636L29.65 29.9352L35.8211 23.068L36.544 23.483L30.3729 30.3636ZM35.3392 31.4746C34.7056 31.4746 34.1835 31.2694 33.773 30.8588C33.3536 30.4394 33.1438 29.9307 33.1438 29.3328C33.1438 28.7438 33.3536 28.2396 33.773 27.8202C34.1924 27.4007 34.7145 27.191 35.3392 27.191C35.955 27.191 36.4726 27.4007 36.892 27.8202C37.3114 28.2396 37.5212 28.7438 37.5212 29.3328C37.5212 29.9307 37.3114 30.4394 36.892 30.8588C36.4815 31.2694 35.9639 31.4746 35.3392 31.4746ZM35.3258 30.2966C35.6114 30.2966 35.8434 30.2074 36.0219 30.0289C36.2004 29.8415 36.2896 29.6095 36.2896 29.3328C36.2896 29.0562 36.2004 28.8241 36.0219 28.6367C35.8434 28.4493 35.6114 28.3556 35.3258 28.3556C35.0492 28.3556 34.8216 28.4493 34.6431 28.6367C34.4646 28.8241 34.3754 29.0562 34.3754 29.3328C34.3754 29.6005 34.4646 29.8281 34.6431 30.0155C34.8305 30.2029 35.0581 30.2966 35.3258 30.2966Z" fill="#6ED097"/>
</g>
<defs>
<clipPath id="clip0_2_1563">
<rect width="52.9192" height="52.9192" fill="white" transform="translate(0.232162 -1.52588e-05)"/>
</clipPath>
</defs>
</svg>
