<svg width="9" height="16" viewBox="0 0 9 16" fill="none" xmlns="http://www.w3.org/2000/svg">
<g clip-path="url(#clip0_5_1838)">
<path d="M2.17378 5.86833C1.76253 6.27958 1.09576 6.27958 0.684507 5.86833C0.273255 5.45707 0.273255 4.7903 0.684507 4.37905L3.84373 1.21982C4.25499 0.808572 4.92176 0.808572 5.33301 1.21982L8.49224 4.37905C8.90349 4.7903 8.90349 5.45707 8.49224 5.86833C8.08099 6.27958 7.41422 6.27958 7.00296 5.86833L4.58837 3.45374L2.17378 5.86833Z" fill="#059e8f"/>
<path d="M7.00296 10.6975C7.41422 10.2863 8.08099 10.2863 8.49224 10.6975C8.90349 11.1088 8.90349 11.7755 8.49224 12.1868L5.33301 15.346C4.92176 15.7573 4.25499 15.7573 3.84373 15.346L0.684507 12.1868C0.273255 11.7755 0.273255 11.1088 0.684507 10.6975C1.09576 10.2863 1.76253 10.2863 2.17378 10.6975L4.58837 13.1121L7.00296 10.6975Z" fill="#059e8f"/>
</g>
<defs>
<clipPath id="clip0_5_1838">
<rect width="8.42461" height="14.7431" fill="white" transform="translate(0.376068 0.911385)"/>
</clipPath>
</defs>
</svg>
